#
# Bunkspeed OBJ File
# http://www.bunkspeed.com
#
mtllib XAxis.mtl

##########################
g |ZAxisAxle|Root|color
##########################
v 0.004829629 0.2003 -0.001294095
v 0.005 0.2003 -1.416385E-18
v 0.005 0.1953 -3.061617E-19
v -0.001294095 0.0002999976 0.004829629
v 2.83277E-18 0.0002999976 0.005
v 6.123234E-19 0.1953 0.005
v 0.001294095 0.0002999976 0.004829629
v 0.001294095 0.1953 0.004829629
v 0.0025 0.0002999976 0.004330127
v 0.0025 0.1953 0.004330127
v 0.003535534 0.0002999976 0.003535534
v 0.003535534 0.1953 0.003535534
v 0.004330127 0.0002999976 0.0025
v 0.004330127 0.1953 0.0025
v 0.004829629 0.0002999976 0.001294095
v 0.004829629 0.1953 0.001294095
v 0.005 0.0002999976 -1.416385E-18
v 0.005 0.1953 -3.061617E-19
v 0.004829629 0.0002999976 -0.001294095
v 0.004829629 0.2003 -0.001294095
v 0.004330127 0.0002999976 -0.0025
v 0.004330127 0.2003 -0.0025
v 0.003535534 0.0002999976 -0.003535534
v 0.003535534 0.2003 -0.003535534
v 0.0025 0.0002999976 -0.004330127
v 0.0025 0.2003 -0.004330127
v 0.001294095 0.0002999976 -0.004829629
v 0.001294095 0.2003 -0.004829629
v 0 0.0002999976 -0.005
v 0 0.2003 -0.005
v -0.001294095 0.0002999976 -0.004829629
v -0.001294095 0.2003 -0.004829629
v -0.0025 0.0002999976 -0.004330127
v -0.0025 0.2003 -0.004330127
v -0.003535534 0.0002999976 -0.003535534
v -0.003535534 0.2003 -0.003535534
v -0.004330127 0.0002999976 -0.0025
v -0.004330127 0.2003 -0.0025
v -0.004829629 0.0002999976 -0.001294095
v -0.004829629 0.2003 -0.001294095
v -0.005 0.0002999976 5.359377E-18
v -0.005 0.2003 5.359377E-18
v -0.004829629 0.0002999976 0.001294095
v -0.004829629 0.2003 0.001294095
v -0.004330127 0.0002999976 0.0025
v -0.004330127 0.2003 0.0025
v -0.003535534 0.0002999976 0.003535534
v -0.003535534 0.2003 0.003535534
v -0.0025 0.0002999976 0.004330127
v -0.0025 0.2003 0.004330127
v -0.001294095 0.0002999976 0.004829629
v -0.001294095 0.2003 0.004829629
v 6.123234E-19 0.1953 0.005
v 2.83277E-18 0.2003 0.005
v -0.003535534 0.2003 0.003535534
v -0.0025 0.2003 0.004330127
v 0.0025 0.2003 -0.004330127
v 0.0025 0.2003 -0.004330127
v -0.0025 0.2003 0.004330127
v 0.003535534 0.2003 -0.003535534
v 1.224647E-18 0.2003 0.01
v 0.005 0.2003 0.01
v 6.123234E-19 0.2003 0.005
v 0.005 0.2003 -4.336809E-19
v -0.001294095 0.2003 0.004829629
v 0.004829629 0.2003 -0.001294095
v -0.0025 0.2003 0.004330127
v 0.004330127 0.2003 -0.0025
v 0.003535534 0.2003 -0.003535534
v 0.0025 0.2003 -0.004330127
v -0.0025 0.2003 -0.004330127
v -0.003535534 0.2003 -0.003535534
v 0.0025 0.2003 -0.004330127
v 0.001294095 0.2003 -0.004829629
v -0.0025 0.2003 -0.004330127
v 0 0.2003 -0.005
v -0.001294095 0.2003 -0.004829629
v -0.003535534 0.2003 -0.003535534
v -0.004330127 0.2003 -0.0025
v 0.0025 0.2003 -0.004330127
v -0.004829629 0.2003 -0.001294095
v -0.005 0.2003 5.359377E-18
v -0.005 0.2003 5.359377E-18
v -0.004829629 0.2003 0.001294095
v 0.0025 0.2003 -0.004330127
v -0.004330127 0.2003 0.0025
v -0.003535534 0.2003 0.003535534
v 0.0025 0.0002999976 0.004330127
v 0.001294095 0.0002999976 0.004829629
v 0 0.0002999976 0
v 1.83697E-18 0.0002999976 0.005
v -0.001294095 0.0002999976 0.004829629
v 0.004829629 0.0002999976 0.001294095
v 0.004330127 0.0002999976 0.0025
v 0 0.0002999976 0
v 0.003535534 0.0002999976 0.003535534
v 0.0025 0.0002999976 0.004330127
v 0.004330127 0.0002999976 -0.0025
v 0.004829629 0.0002999976 -0.001294095
v 0 0.0002999976 0
v 0.005 0.0002999976 -1.416385E-18
v 0.004829629 0.0002999976 0.001294095
v 0.001294095 0.0002999976 -0.004829629
v 0.0025 0.0002999976 -0.004330127
v 0 0.0002999976 0
v 0.003535534 0.0002999976 -0.003535534
v 0.004330127 0.0002999976 -0.0025
v -0.0025 0.0002999976 -0.004330127
v -0.001294095 0.0002999976 -0.004829629
v 0 0.0002999976 0
v 0 0.0002999976 -0.005
v 0.001294095 0.0002999976 -0.004829629
v -0.004829629 0.0002999976 -0.001294095
v -0.004330127 0.0002999976 -0.0025
v 0 0.0002999976 0
v -0.003535534 0.0002999976 -0.003535534
v -0.0025 0.0002999976 -0.004330127
v -0.004330127 0.0002999976 0.0025
v -0.004829629 0.0002999976 0.001294095
v 0 0.0002999976 0
v -0.005 0.0002999976 5.359377E-18
v -0.004829629 0.0002999976 -0.001294095
v -0.001294095 0.0002999976 0.004829629
v -0.0025 0.0002999976 0.004330127
v 0 0.0002999976 0
v -0.003535534 0.0002999976 0.003535534
v -0.004330127 0.0002999976 0.0025
v 1.224647E-18 0.1953 0.01
v 1.224647E-18 0.2003 0.01
v 6.123234E-19 0.1953 0.005
v 6.123234E-19 0.2003 0.005
v 0.005 0.1953 0.01
v 0.005 0.1953 -3.061617E-19
v 0.005 0.2003 0.01
v 0.005 0.2003 -3.061617E-19
v 1.224647E-18 0.1953 0.01
v 0.005 0.1953 0.01
v 1.224647E-18 0.2003 0.01
v 0.005 0.2003 0.01
v 0.005 0.1953 0.01
v 1.224647E-18 0.1953 0.01
v 6.123234E-19 0.1953 0.005
v 6.123234E-19 0.1953 0.005
v 0.001294095 0.1953 0.004829629
v 0.005 0.1953 0.01
v 0.0025 0.1953 0.004330127
v 0.003535534 0.1953 0.003535534
v 0.003535534 0.1953 0.003535534
v 0.004330127 0.1953 0.0025
v 0.005 0.1953 0.01
v 0.004829629 0.1953 0.001294095
v 0.005 0.1953 0
vt 0.5189705 1
vt 0.5125 1
vt 0.5125 0.975
vt 0.4935295 0
vt 0.5 0
vt 0.5 0.975
vt 0.5064705 0
vt 0.5064705 0.975
vt 0.5125 0
vt 0.5125 0.975
vt 0.5176777 0
vt 0.5176777 0.975
vt 0.5 0
vt 0.5 0.975
vt 0.5060295 0
vt 0.5060295 0.975
vt 0.5125 0
vt 0.5125 0.975
vt 0.5189705 0
vt 0.5189705 1
vt 0.525 0
vt 0.525 1
vt 0.4823223 0
vt 0.4823223 1
vt 0.4875 0
vt 0.4875 1
vt 0.4935295 0
vt 0.4935295 1
vt 0.5 0
vt 0.5 1
vt 0.5064705 0
vt 0.5064705 1
vt 0.5125 0
vt 0.5125 1
vt 0.5176777 0
vt 0.5176777 1
vt 0.475 0
vt 0.475 1
vt 0.4810295 0
vt 0.4810295 1
vt 0.4875 0
vt 0.4875 1
vt 0.4939705 0
vt 0.4939705 1
vt 0.5 0
vt 0.5 1
vt 0.4823223 0
vt 0.4823223 1
vt 0.4875 0
vt 0.4875 1
vt 0.4935295 0
vt 0.4935295 1
vt 0.5 0.975
vt 0.5 1
vt 0.4823223 0.4948223
vt 0.4875 0.4908494
vt 0.5125 0.5341506
vt 0.5125 0.5341506
vt 0.4875 0.4908494
vt 0.5176777 0.5301777
vt 0.5 0.4625
vt 0.525 0.4625
vt 0.5 0.4875
vt 0.525 0.5125
vt 0.4935295 0.4883518
vt 0.5241482 0.5189705
vt 0.4875 0.4908494
vt 0.5216506 0.525
vt 0.5176777 0.5301777
vt 0.5125 0.5341506
vt 0.4875 0.5341506
vt 0.4823223 0.5301777
vt 0.5125 0.5341506
vt 0.5064705 0.5366482
vt 0.4875 0.5341506
vt 0.5 0.5375
vt 0.4935295 0.5366482
vt 0.4823223 0.5301777
vt 0.4783494 0.525
vt 0.5125 0.5341506
vt 0.4758519 0.5189705
vt 0.475 0.5125
vt 0.475 0.5125
vt 0.4758519 0.5060295
vt 0.5125 0.5341506
vt 0.4783494 0.5
vt 0.4823223 0.4948223
vt 0.4875 0.4908494
vt 0.4935295 0.4883518
vt 0.5 0.5125
vt 0.5 0.4875
vt 0.5064705 0.4883518
vt 0.4758519 0.5060295
vt 0.4783494 0.5
vt 0.5 0.5125
vt 0.4823223 0.4948223
vt 0.4875 0.4908494
vt 0.4783494 0.525
vt 0.4758519 0.5189705
vt 0.5 0.5125
vt 0.475 0.5125
vt 0.4758519 0.5060295
vt 0.4935295 0.5366482
vt 0.4875 0.5341506
vt 0.5 0.5125
vt 0.4823223 0.5301777
vt 0.4783494 0.525
vt 0.5125 0.5341506
vt 0.5064705 0.5366482
vt 0.5 0.5125
vt 0.5 0.5375
vt 0.4935295 0.5366482
vt 0.5241482 0.5189705
vt 0.5216506 0.525
vt 0.5 0.5125
vt 0.5176777 0.5301777
vt 0.5125 0.5341506
vt 0.5216506 0.5
vt 0.5241482 0.5060295
vt 0.5 0.5125
vt 0.525 0.5125
vt 0.5241482 0.5189705
vt 0.5064705 0.4883518
vt 0.5125 0.4908494
vt 0.5 0.5125
vt 0.5176777 0.4948223
vt 0.5216506 0.5
vt 0.5375 0.975
vt 0.5375 1
vt 0.5125 0.975
vt 0.5125 1
vt 0.4625 0.975
vt 0.5125 0.975
vt 0.4625 1
vt 0.5125 1
vt 0.5 0.975
vt 0.525 0.975
vt 0.5 1
vt 0.525 1
vt 0.475 0.4625
vt 0.5 0.4625
vt 0.5 0.4875
vt 0.5 0.4875
vt 0.4935295 0.4883518
vt 0.475 0.4625
vt 0.4875 0.4908494
vt 0.4823223 0.4948223
vt 0.4823223 0.4948223
vt 0.4783494 0.5
vt 0.475 0.4625
vt 0.4758519 0.5060295
vt 0.475 0.5125
vn 0.9659258 0 -0.258819
vn 1 0 -2.832769E-16
vn 1 0 -6.123234E-17
vn -0.258819 0 0.9659258
vn 5.665539E-16 0 1
vn 1.224647E-16 0 1
vn 0.258819 0 0.9659258
vn 0.258819 0 0.9659258
vn 0.5 0 0.8660254
vn 0.5 0 0.8660254
vn 0.7071068 0 0.7071068
vn 0.7071068 0 0.7071068
vn 0.8660254 0 0.5
vn 0.8660254 0 0.5
vn 0.9659258 0 0.258819
vn 0.9659258 0 0.258819
vn 1 0 -2.832769E-16
vn 1 0 -6.123234E-17
vn 0.9659258 0 -0.258819
vn 0.9659258 0 -0.258819
vn 0.8660254 0 -0.5
vn 0.8660254 0 -0.5
vn 0.7071068 0 -0.7071068
vn 0.7071068 0 -0.7071068
vn 0.5 0 -0.8660254
vn 0.5 0 -0.8660254
vn 0.258819 0 -0.9659258
vn 0.258819 0 -0.9659258
vn 0 0 -1
vn 0 0 -1
vn -0.258819 0 -0.9659258
vn -0.258819 0 -0.9659258
vn -0.5 0 -0.8660254
vn -0.5 0 -0.8660254
vn -0.7071068 0 -0.7071068
vn -0.7071068 0 -0.7071068
vn -0.8660254 0 -0.5
vn -0.8660254 0 -0.5
vn -0.9659258 0 -0.258819
vn -0.9659258 0 -0.258819
vn -1 0 1.071875E-15
vn -1 0 1.071875E-15
vn -0.9659258 0 0.258819
vn -0.9659258 0 0.258819
vn -0.8660254 0 0.5
vn -0.8660254 0 0.5
vn -0.7071068 0 0.7071068
vn -0.7071068 0 0.7071068
vn -0.5 0 0.8660254
vn -0.5 0 0.8660254
vn -0.258819 0 0.9659258
vn -0.258819 0 0.9659258
vn 1.224647E-16 0 1
vn 5.665539E-16 0 1
vn 0 1 0
vn 0 1 0
vn 0 1 0
vn 0 1 0
vn 0 1 0
vn 0 1 0
vn 0 1 0
vn 0 1 0
vn 0 1 0
vn 0 1 0
vn 0 1 0
vn 0 1 0
vn 0 1 0
vn 0 1 0
vn 0 1 0
vn 0 1 0
vn 0 1 0
vn 0 1 0
vn 0 1 0
vn 0 1 0
vn 0 1 0
vn 0 1 0
vn 0 1 0
vn 0 1 0
vn 0 1 0
vn 0 1 0
vn 0 1 0
vn 0 1 0
vn 0 1 0
vn 0 1 0
vn 0 1 0
vn 0 1 0
vn 0 1 0
vn 0 -1 0
vn 0 -1 0
vn 0 -1 0
vn 0 -1 0
vn 0 -1 0
vn 0 -1 0
vn 0 -1 0
vn 0 -1 0
vn 0 -1 0
vn 0 -1 0
vn 0 -1 0
vn 0 -1 0
vn 0 -1 0
vn 0 -1 0
vn 0 -1 0
vn 0 -1 0
vn 0 -1 0
vn 0 -1 0
vn 0 -1 0
vn 0 -1 0
vn 0 -1 0
vn 0 -1 0
vn 0 -1 0
vn 0 -1 0
vn 0 -1 0
vn 0 -1 0
vn 0 -1 0
vn 0 -1 0
vn 0 -1 0
vn 0 -1 0
vn 0 -1 0
vn 0 -1 0
vn 0 -1 0
vn 0 -1 0
vn 0 -1 0
vn 0 -1 0
vn 0 -1 0
vn 0 -1 0
vn 0 -1 0
vn 0 -1 0
vn -1 0 1.224647E-16
vn -1 0 1.224647E-16
vn -1 0 1.224647E-16
vn -1 0 1.224647E-16
vn 1 0 -8.673617E-17
vn 1 0 -8.673617E-17
vn 1 0 -8.673617E-17
vn 1 0 -8.673617E-17
vn 0 0 1
vn 0 0 1
vn 0 0 1
vn 0 0 1
vn 0 -1 0
vn 0 -1 0
vn 0 -1 0
vn 0 -1 0
vn 0 -1 0
vn 0 -1 0
vn 0 -1 0
vn 0 -1 0
vn 0 -1 0
vn 0 -1 0
vn 0 -1 0
vn 0 -1 0
vn 0 -1 0
usemtl color
f 1/1/1 2/2/2 3/3/3
f 4/4/4 5/5/5 6/6/6
f 5/5/5 7/7/7 6/6/6
f 6/6/6 7/7/7 8/8/8
f 7/7/7 9/9/9 8/8/8
f 8/8/8 9/9/9 10/10/10
f 9/9/9 11/11/11 10/10/10
f 10/10/10 11/11/11 12/12/12
f 11/11/11 13/13/13 12/12/12
f 12/12/12 13/13/13 14/14/14
f 13/13/13 15/15/15 14/14/14
f 14/14/14 15/15/15 16/16/16
f 15/15/15 17/17/17 16/16/16
f 16/16/16 17/17/17 18/18/18
f 17/17/17 19/19/19 18/18/18
f 18/18/18 19/19/19 20/20/20
f 19/19/19 21/21/21 20/20/20
f 20/20/20 21/21/21 22/22/22
f 21/21/21 23/23/23 22/22/22
f 22/22/22 23/23/23 24/24/24
f 23/23/23 25/25/25 24/24/24
f 24/24/24 25/25/25 26/26/26
f 25/25/25 27/27/27 26/26/26
f 26/26/26 27/27/27 28/28/28
f 27/27/27 29/29/29 28/28/28
f 28/28/28 29/29/29 30/30/30
f 29/29/29 31/31/31 30/30/30
f 30/30/30 31/31/31 32/32/32
f 31/31/31 33/33/33 32/32/32
f 32/32/32 33/33/33 34/34/34
f 33/33/33 35/35/35 34/34/34
f 34/34/34 35/35/35 36/36/36
f 35/35/35 37/37/37 36/36/36
f 36/36/36 37/37/37 38/38/38
f 37/37/37 39/39/39 38/38/38
f 38/38/38 39/39/39 40/40/40
f 39/39/39 41/41/41 40/40/40
f 40/40/40 41/41/41 42/42/42
f 41/41/41 43/43/43 42/42/42
f 42/42/42 43/43/43 44/44/44
f 43/43/43 45/45/45 44/44/44
f 44/44/44 45/45/45 46/46/46
f 45/45/45 47/47/47 46/46/46
f 46/46/46 47/47/47 48/48/48
f 47/47/47 49/49/49 48/48/48
f 48/48/48 49/49/49 50/50/50
f 49/49/49 51/51/51 50/50/50
f 50/50/50 51/51/51 52/52/52
f 51/51/51 53/53/53 52/52/52
f 52/52/52 53/53/53 54/54/54
f 55/55/55 56/56/56 57/57/57
f 58/58/58 59/59/59 60/60/60
f 61/61/61 62/62/62 63/63/63
f 62/62/62 64/64/64 63/63/63
f 63/63/63 64/64/64 65/65/65
f 64/64/64 66/66/66 65/65/65
f 65/65/65 66/66/66 67/67/67
f 66/66/66 68/68/68 67/67/67
f 67/67/67 68/68/68 69/69/69
f 70/70/70 71/71/71 72/72/72
f 73/73/73 74/74/74 75/75/75
f 74/74/74 76/76/76 75/75/75
f 75/75/75 76/76/76 77/77/77
f 78/78/78 79/79/79 80/80/80
f 79/79/79 81/81/81 80/80/80
f 80/80/80 81/81/81 82/82/82
f 83/83/83 84/84/84 85/85/85
f 84/84/84 86/86/86 85/85/85
f 85/85/85 86/86/86 87/87/87
f 88/88/88 89/89/89 90/90/90
f 89/89/89 91/91/91 90/90/90
f 90/90/90 91/91/91 92/92/92
f 93/93/93 94/94/94 95/95/95
f 94/94/94 96/96/96 95/95/95
f 95/95/95 96/96/96 97/97/97
f 98/98/98 99/99/99 100/100/100
f 99/99/99 101/101/101 100/100/100
f 100/100/100 101/101/101 102/102/102
f 103/103/103 104/104/104 105/105/105
f 104/104/104 106/106/106 105/105/105
f 105/105/105 106/106/106 107/107/107
f 108/108/108 109/109/109 110/110/110
f 109/109/109 111/111/111 110/110/110
f 110/110/110 111/111/111 112/112/112
f 113/113/113 114/114/114 115/115/115
f 114/114/114 116/116/116 115/115/115
f 115/115/115 116/116/116 117/117/117
f 118/118/118 119/119/119 120/120/120
f 119/119/119 121/121/121 120/120/120
f 120/120/120 121/121/121 122/122/122
f 123/123/123 124/124/124 125/125/125
f 124/124/124 126/126/126 125/125/125
f 125/125/125 126/126/126 127/127/127
f 128/128/128 129/129/129 130/130/130
f 129/129/129 131/131/131 130/130/130
f 132/132/132 133/133/133 134/134/134
f 133/133/133 135/135/135 134/134/134
f 136/136/136 137/137/137 138/138/138
f 137/137/137 139/139/139 138/138/138
f 140/140/140 141/141/141 142/142/142
f 143/143/143 144/144/144 145/145/145
f 144/144/144 146/146/146 145/145/145
f 145/145/145 146/146/146 147/147/147
f 148/148/148 149/149/149 150/150/150
f 149/149/149 151/151/151 150/150/150
f 150/150/150 151/151/151 152/152/152
##########################

